<?xml version='1.0' encoding='UTF-8'?>
<!DOCTYPE svg PUBLIC "-//W3C//DTD SVG 1.1//EN" "http://www.w3.org/Graphics/SVG/1.1/DTD/svg11.dtd">
<svg xmlns="http://www.w3.org/2000/svg" xmlns:xlink="http://www.w3.org/1999/xlink" version="1.1" width="438.514" height="175.716" style="shape-rendering:geometricPrecision; text-rendering:geometricPrecision; image-rendering:optimizeQuality; fill-rule:evenodd; clip-rule:evenodd" viewBox="-3.231 -2.442 438.514 175.716" role="img" aria-label="AIum Primary Company Wordmark">
  <title>AIum Primary Company Wordmark</title>
  <g>
    <path fill="#f5f5f6" d="M 391.35,85.61 c 6.67,2.32 10.47,7.01 11.39,14.05 c 0.27,12.94 0.37,25.89 0.28,38.84 c 0.13,2.82 -0.69,5.31 -2.46,7.48 c -0.67,-0.38 -1.06,-0.95 -1.18,-1.7 c 0.06,-13.13 2.41,-39.23 -1.6,-50.87 c -2.1,-2.44 -4.55,-4.48 -7.34,-6.11 c 0.15,-0.64 0.45,-1.21 0.91,-1.69 Z"/>
  </g>
  <g>
    <path fill="#f4f5f5" d="M 283.03,143.45 c -1.09,-0.34 -2.07,-0.87 -2.95,-1.6 c -1.31,-1.32 -2.03,-2.91 -2.16,-4.77 c 0.91,-0.59 1.31,-1.44 1.18,-2.56 c 0.01,-18.67 0.01,-37.34 0.02,-56.01 c -0.09,-1.04 1.03,-1.83 1.52,-0.77 c -0.09,2.94 0.04,5.86 0.39,8.78 c -0.27,15.34 -0.35,30.69 -0.25,46.03 c 0.1,0.83 0.43,1.55 1,2.17 c 0.21,0.86 0.36,1.72 0.46,2.6 c 1.09,0.82 1.86,1.87 2.31,3.17 c -0.43,1.03 -0.94,2.02 -1.52,2.96 Z"/>
  </g>
  <g>
    <path fill="#151c22" stroke="#151c22" stroke-width="0.5" d="M 88.5,106.21 c 0.28,-0.65 0.64,-1.25 1.08,-1.79 c 0.27,0.44 0.57,0.86 0.9,1.25 c 0.51,-1.29 1.23,-2.48 2.15,-3.55 c 1.77,-1.6 3.67,-3.04 5.7,-4.32 c 0.48,-1.14 1.14,-2.13 2,-2.99 c 5.18,12.69 10.22,25.42 15.11,38.22 c 4.49,13.65 22.63,11.3 21.31,-5.53 c 0.04,-29.17 -0.04,-58.33 -0.25,-87.5 c -0.53,-7.54 -7.58,-9.58 -13.95,-10.09 c -1.27,-1.13 1.44,-1.09 1.93,-1.11 c 14.68,-0.15 29.36,-0.14 44.04,0 c 0.85,-0.01 1.59,0.25 2.22,0.79 c -1.88,0.38 -3.79,0.67 -5.74,0.88 c -11.21,2.03 -10.47,8.32 -10.6,18.03 c -0.06,27.65 -0.05,55.3 0.03,82.95 c 0.45,9.35 7.47,10.46 15.08,11.51 c 0.48,0.08 0.88,0.3 1.21,0.64 c -1.36,0.42 -2.76,0.58 -4.22,0.48 c -26.85,0.07 -54.22,0.25 -81.02,-0.04 c -0.8,0.05 -1.53,-0.13 -2.18,-0.55 c 3.02,-0.59 6.08,-1.17 9.15,-1.74 c 5.35,-0.77 8.12,-4.38 5.91,-9.72 c -3.24,-8.62 -6.53,-17.23 -9.86,-25.82 Z M 144.66,139.1 c 0.5,-0.02 1.01,-0.05 1.51,-0.07 c 1.93,-0.5 0.89,-2.04 1.47,-3.49 c -0.17,-1.35 -0.39,-2.7 -0.66,-4.04 c -0.03,-4.68 0.23,-9.35 0.77,-13.99 c -0.1,-8.34 -0.12,-16.68 -0.07,-25.02 c -0.18,-1.34 -0.42,-2.67 -0.7,-3.99 c 0.04,-10.67 0.04,-21.33 0.01,-32 c 0.86,-3.66 0.69,-5.36 0,-9 c -0.05,-4.53 0.05,-9.05 0.29,-13.56 c -0.6,-1.35 -3.24,-1.58 -3.96,-0.18 c 0.13,34.83 0.12,69.66 -0.03,104.49 c 0.33,0.47 0.78,0.76 1.37,0.85 Z M 84.23,54.91 c 4.29,10.7 8.59,21.39 12.93,32.08 c -1.97,0.95 -1.43,0.7 -2.68,-0.61 c -3.14,1.08 -4.5,2.49 -6.84,4.6 c -2.15,1.23 -2.2,-0.97 -3.03,2.65 c -0.44,-0.65 -0.99,-1.21 -1.63,-1.67 c -3.45,-8.93 -6.94,-17.85 -10.49,-26.75 c 0.23,-0.67 0.57,-1.28 1.01,-1.82 c 0.64,1.11 1.31,2.18 2.02,3.24 c 1.42,-1.77 2.8,-3.59 4.15,-5.46 c 0.86,-0.44 1.65,-0.99 2.35,-1.65 c 0.62,0.01 1.22,-0.05 1.78,-0.19 c -0.2,-0.95 -0.46,-1.89 -0.78,-2.83 c 0.11,-0.75 0.52,-1.28 1.21,-1.59 Z M 400.56,145.98 c 1.77,-2.17 2.59,-4.66 2.46,-7.48 c 0.09,-12.95 -0.01,-25.9 -0.28,-38.84 c -0.92,-7.04 -4.72,-11.73 -11.39,-14.05 c -11.57,-3.44 -25.38,4.17 -25.6,16.88 c 0,11.67 -0.02,23.34 -0.05,35.01 c -0.66,8.09 4.78,11.26 11.95,12.04 c -10.34,1.6 -24.51,0.43 -35.23,0.33 c -0.5,0.06 -0.95,-0.06 -1.34,-0.36 c 1.25,-0.46 2.55,-0.81 3.91,-1.03 c 3.84,-0.83 6.1,-3.17 6.77,-7.01 c 0.29,-12.65 0.4,-25.31 0.32,-37.97 c 0.57,-17.6 -16.22,-24.29 -29.89,-15 c 0.04,-1.26 -0.47,-2.23 -1.54,-2.89 c 11.6,-10.31 31.88,-13.81 41.58,0.72 c 1.09,2.19 2.14,4.36 3.13,6.51 c 1.23,-1.74 2.54,-3.41 3.95,-5.03 c 14.68,-15.49 42.97,-16.56 47.02,8.64 c 0.69,12.46 0.26,27.34 0.26,40.05 c -0.11,9.45 3.22,11.9 12.11,12.96 c -1.04,0.33 -2.1,0.47 -3.2,0.44 c -10.67,0.16 -21.35,0.13 -32.02,-0.07 c -0.8,0.04 -1.55,-0.12 -2.25,-0.48 c 1.8,-0.22 3.59,-0.56 5.38,-1.01 c 1.51,-0.46 2.83,-1.25 3.95,-2.36 Z M 403.69,107.04 c 0.4,9.49 0.44,18.97 0.11,28.46 c -0.07,1.75 0.14,3.45 0.63,5.09 c 0.44,-2 0.65,-4.02 0.62,-6.09 c -0.94,-10.03 0.21,-19.95 0.01,-30 c 0.02,-1.76 -0.16,-3.49 -0.55,-5.19 c -1.22,1.57 -0.55,5.71 -0.82,7.73 Z"/>
  </g>
  <g>
    <path fill="#f2f6fa" d="M 146.17,139.03 c -0.5,0.02 -1.01,0.05 -1.51,0.07 c 0.12,-34.57 0.15,-69.14 0.09,-103.72 c 0.47,-1.81 0.91,-1.79 1.34,0.07 c -0.06,34.52 -0.03,69.05 0.08,103.58 Z"/>
  </g>
  <g>
    <path fill="#151b22" stroke="#151b22" stroke-width="0.5" d="M 84.23,54.91 c -0.69,0.31 -1.1,0.84 -1.21,1.59 c 0.32,0.94 0.58,1.88 0.78,2.83 c -0.56,0.14 -1.16,0.2 -1.78,0.19 c -0.7,0.66 -1.49,1.21 -2.35,1.65 c -1.35,1.87 -2.73,3.69 -4.15,5.46 c -0.71,-1.06 -1.38,-2.13 -2.02,-3.24 c -0.44,0.54 -0.78,1.15 -1.01,1.82 c -1.85,-4.56 -3.72,-9.11 -5.59,-13.65 c -0.6,-0.78 -1.2,-0.78 -1.79,0.02 c -6.15,13.54 -12.13,27.14 -17.93,40.8 c 0.29,0.48 0.71,0.7 1.28,0.67 c 11.02,0.1 22.05,0.09 33.07,-0.03 c 0.78,0.03 1.26,-0.32 1.45,-1.06 c 0.64,0.46 1.19,1.02 1.63,1.67 c 0.83,-3.62 0.88,-1.42 3.03,-2.65 c 2.34,-2.11 3.7,-3.52 6.84,-4.6 c 1.25,1.31 0.71,1.56 2.68,0.61 c 1,2.63 2.06,5.24 3.17,7.82 c -0.86,0.86 -1.52,1.85 -2,2.99 c -2.03,1.28 -3.93,2.72 -5.7,4.32 c -0.92,1.07 -1.64,2.26 -2.15,3.55 c -0.33,-0.39 -0.63,-0.81 -0.9,-1.25 c -0.44,0.54 -0.8,1.14 -1.08,1.79 c -0.88,-1.6 -2.44,-8.46 -4.13,-8.87 c -12.62,-0.12 -25.24,-0.16 -37.87,-0.15 c -1.69,0.14 -2.71,1.07 -3.08,2.78 c -3,9.44 -11.98,22.95 -11.69,32.53 c 0.22,8.84 6.94,9.23 13.79,10.44 c 0.46,0.09 0.85,0.3 1.16,0.63 c -1,0.42 -2.06,0.6 -3.18,0.52 c -9.36,0.09 -18.71,0.1 -28.07,0.03 c -1.45,-0.18 -1.62,-0.7 -0.53,-1.57 c 3.71,-1.17 6.41,-3.5 8.1,-6.99 c 15.61,-35.84 31.63,-71.44 48.27,-106.81 c 0.81,-1.13 1.54,-1.09 2.2,0.13 c 3.64,8.65 7.22,17.33 10.76,26.03 Z M 320.65,85.61 c 1.07,0.66 1.58,1.63 1.54,2.89 c -3.06,2.31 -5.06,5.32 -6,9.02 c -0.16,14 -0.17,28.01 -0.04,42.01 c -0.09,3.63 1.42,6.31 4.54,8.04 c 2.01,0.72 4.02,1.36 6.04,1.92 c -2.31,1.28 -28.5,0.5 -33.28,0.54 c -0.55,0.04 -1,-0.12 -1.37,-0.51 c 1.96,-0.61 3.95,-1.25 5.95,-1.93 c 4.91,-1.77 5.03,-7.74 5,-12.09 c -0.99,-8.21 2.58,-45.04 -2.59,-49.37 c -2.07,-1.27 -4.32,-1.74 -6.75,-1.39 c -0.39,-0.22 -0.5,-0.55 -0.32,-0.97 c 6.98,-2.4 14.02,-4.68 21.13,-6.83 c 0.89,0.15 1.36,0.68 1.41,1.59 c -0.03,3.78 0.13,7.51 0.46,11.21 c 1.41,-1.39 2.84,-2.76 4.28,-4.13 Z"/>
  </g>
  <g>
    <path fill="#161d24" stroke="#161d24" stroke-width="0.5" d="M 273.83,77.66 c 0.48,0.84 1.15,1.53 1.98,2.04 c -0.36,1.34 -0.79,2.66 -1.3,3.95 c -0.48,-0.94 -1.14,-1.69 -2,-2.25 c -1.22,0.21 -2.33,0.66 -3.34,1.35 c 0.06,1.34 3.99,3.89 5.39,3.63 c 1.39,2.65 1.31,6.11 1.51,9.07 c -0.54,8.34 -0.57,16.68 -0.09,25.02 c -0.16,2.06 -0.76,3.99 -1.78,5.8 c 0.04,0.32 0.08,0.65 0.12,0.97 c 0.72,0.96 2.56,2.94 0.26,3.38 c -1.15,-0.94 -2.06,-2.09 -2.71,-3.42 c -0.97,0.08 -1.85,-0.14 -2.66,-0.64 c -0.55,-0.93 -1.12,-1.84 -1.72,-2.72 c 0.68,0.52 1.09,1.22 1.24,2.08 c 0.42,7.34 3.81,12.9 10.16,16.69 c 0.65,0.17 1.04,-0.08 1.19,-0.76 c 0.88,0.73 1.86,1.26 2.95,1.6 c 1.62,0.17 3.18,0.53 4.68,1.08 c -7.37,2.52 -14.74,4.99 -22.14,7.41 c -0.55,-0.28 -0.84,-0.73 -0.86,-1.37 c 0.04,-4.42 -0.04,-8.82 -0.22,-13.19 c -2.06,2.13 -4.16,4.23 -6.3,6.31 c -6.51,5.65 -14.07,8.58 -22.69,8.77 c -40.72,-0.83 -11.82,-61.56 -27.48,-66.98 c -1.63,-0.22 -3.21,-0.55 -4.76,-0.99 c 6.77,-2.49 13.58,-4.89 20.42,-7.22 c 0.87,-0.43 1.69,-0.38 2.44,0.17 c 0.16,16.02 0.22,32.04 0.18,48.06 c 0.18,27.46 32.62,23.08 38.09,4.46 c 0.12,-11.65 0.45,-28.29 -0.28,-39.47 c -0.85,-4.15 -3.41,-6.27 -7.66,-6.34 c -1.58,-0.34 -1.66,-0.81 -0.24,-1.42 c 5.83,-1.83 11.71,-3.52 17.62,-5.07 Z"/>
  </g>
  <g>
    <path fill="#2b2c35" d="M 3.28,34 c -0.01,-9.47 0.01,-18.95 0.05,-28.42 c 0.01,-0.82 0.41,-1.31 1.2,-1.46 c 61.93,-0.1 123.84,-0.06 185.75,0.12 c 0.56,0.63 0.78,1.38 0.66,2.25 c 0.06,53.24 -0.03,106.48 -0.27,159.71 c -0.64,0.47 -1.35,0.65 -2.16,0.53 c -61.54,-0.05 -123.07,-0.12 -184.59,-0.22 c -0.45,-0.6 -0.64,-1.28 -0.58,-2.04 c 0,-43.49 -0.02,-86.98 -0.06,-130.47 Z M 5.62,12 c 0.07,49.5 0.08,99.01 0.04,148.51 c -0.04,1.26 0.1,2.49 0.4,3.71 c 60.45,-0.09 120.9,-0.03 181.36,0.19 c 0.89,-0.29 1.32,-0.92 1.29,-1.91 c -0.06,-51.67 -0.05,-103.35 0.01,-155.02 c 0.1,-0.46 -0.02,-0.84 -0.37,-1.12 c -60.28,-0.02 -120.55,-0.02 -180.83,0.01 c -0.73,-0.09 -1.3,0.15 -1.7,0.73 c -0.17,1.63 -0.24,3.26 -0.2,4.9 Z"/>
  </g>
  <g>
    <path fill="#191f25" d="M 277.92,137.08 c 0.13,1.86 0.85,3.45 2.16,4.77 c -0.15,0.68 -0.54,0.93 -1.19,0.76 c -6.35,-3.79 -9.74,-9.35 -10.16,-16.69 c -0.15,-0.86 -0.56,-1.56 -1.24,-2.08 c 0.6,0.88 1.17,1.79 1.72,2.72 c 0.81,0.5 1.69,0.72 2.66,0.64 c 0.65,1.33 1.56,2.48 2.71,3.42 c 2.3,-0.44 0.46,-2.42 -0.26,-3.38 c -0.04,-0.32 -0.08,-0.65 -0.12,-0.97 c 1.02,-1.81 1.62,-3.74 1.78,-5.8 c -0.48,-8.34 -0.45,-16.68 0.09,-25.02 c -0.2,-2.96 -0.12,-6.42 -1.51,-9.07 c -1.4,0.26 -5.33,-2.29 -5.39,-3.63 c 1.01,-0.69 2.12,-1.14 3.34,-1.35 c 0.86,0.56 1.52,1.31 2,2.25 c 0.51,-1.29 0.94,-2.61 1.3,-3.95 c -0.83,-0.51 -1.5,-1.2 -1.98,-2.04 c 1.19,-0.63 4.2,-1.52 3.92,0.88 c 0,19.52 0.05,39.03 0.17,58.54 Z"/>
  </g>
  <g>
    <path fill="#070d15" d="M 403.69,107.04 c 0.27,-2.02 -0.4,-6.16 0.82,-7.73 c 0.39,1.7 0.57,3.43 0.55,5.19 c 0.2,10.05 -0.95,19.97 -0.01,30 c 0.03,2.07 -0.18,4.09 -0.62,6.09 c -0.49,-1.64 -0.7,-3.34 -0.63,-5.09 c 0.33,-9.49 0.29,-18.97 -0.11,-28.46 Z"/>
  </g>
  <g>
    <path fill="#2c3238" d="M 146.17,139.03 c -0.11,-34.53 -0.14,-69.06 -0.08,-103.58 c -0.43,-1.86 -0.87,-1.88 -1.34,-0.07 c 0.06,34.58 0.03,69.15 -0.09,103.72 c -0.59,-0.09 -1.04,-0.38 -1.37,-0.85 c 0.15,-34.83 0.16,-69.66 0.03,-104.49 c 0.72,-1.4 3.36,-1.17 3.96,0.18 c -0.24,4.51 -0.34,9.03 -0.29,13.56 c 0.69,3.64 0.86,5.34 0,9 c 0.03,10.67 0.03,21.33 -0.01,32 c 0.28,1.32 0.52,2.65 0.7,3.99 c -0.05,8.34 -0.03,16.68 0.07,25.02 c -0.54,4.64 -0.8,9.31 -0.77,13.99 c 0.27,1.34 0.49,2.69 0.66,4.04 c -0.58,1.45 0.46,2.99 -1.47,3.49 Z"/>
  </g>
</svg>
